<?xml version="1.0" encoding="UTF-8"?>
<svg version="1.1" xmlns="http://www.w3.org/2000/svg" width="512" height="512">
<path d="M0 0 C4.91697873 4.67112979 7.3118183 7.81045489 9.5 14.375 C9.5 21.305 9.5 28.235 9.5 35.375 C84.08 35.375 158.66 35.375 235.5 35.375 C235.5 28.445 235.5 21.515 235.5 14.375 C238.87936772 5.36335275 238.87936772 5.36335275 242.5625 2.4375 C243.25472656 1.87160156 243.94695312 1.30570312 244.66015625 0.72265625 C249.62343413 -2.91286577 255.5852861 -2.13318544 261.5 -1.625 C266.42073821 -0.0693027 269.68932626 3.10693988 272.5 7.375 C274.22637729 11.03092582 274.74035059 13.86362261 274.6953125 17.89453125 C274.68886719 18.91611328 274.68242187 19.93769531 274.67578125 20.99023438 C274.65902344 22.04533203 274.64226562 23.10042969 274.625 24.1875 C274.61597656 25.26193359 274.60695313 26.33636719 274.59765625 27.44335938 C274.57415306 30.08746854 274.54129575 32.73111872 274.5 35.375 C275.29994385 35.36452637 276.0998877 35.35405273 276.92407227 35.34326172 C304.24515694 35.03259375 328.16383086 35.38796643 349.25 55.15625 C360.92677034 66.67084297 368.91539471 81.71559098 369.62880117 98.38446271 C369.63058974 99.45495473 369.63237831 100.52544675 369.63422108 101.62837791 C369.63867892 102.87054585 369.64313676 104.11271378 369.64772969 105.39252317 C369.64764041 106.76301472 369.64745059 108.13350627 369.64717102 109.5039978 C369.65047258 110.96620297 369.65419877 112.42840723 369.6583125 113.89061034 C369.66830758 117.90512609 369.67204528 121.91962689 369.67470181 125.93415332 C369.67861233 130.26568912 369.68819021 134.59721318 369.69691467 138.92874146 C369.71665908 149.38840208 369.72674322 159.84806365 369.73564246 170.30773824 C369.74002911 175.23783998 369.74539499 180.16794064 369.75063133 185.09804153 C369.76764241 201.49492609 369.78213513 217.89180999 369.78938007 234.28870201 C369.79128986 238.54191463 369.7932102 242.79512724 369.79516602 247.04833984 C369.79564976 248.10540873 369.7961335 249.16247761 369.7966319 250.25157888 C369.80492682 267.36378397 369.8302552 284.47591903 369.86274669 301.58809356 C369.89585942 319.17135513 369.91383268 336.75458116 369.91702431 354.33787405 C369.91918562 364.20428093 369.92787857 374.07058572 369.95348549 383.93696213 C369.97525019 392.34217633 369.98321466 400.74726364 369.97351871 409.15250282 C369.96899053 413.43603955 369.97077315 417.7193148 369.99028015 422.00281525 C370.00803187 425.93509312 370.0068182 429.86692109 369.99138286 433.79920454 C369.98902482 435.21114995 369.99323506 436.62312751 370.00521151 438.03502409 C370.16121348 457.66422783 364.62299694 474.57287943 351.5 489.375 C350.96890625 490.00019531 350.4378125 490.62539063 349.890625 491.26953125 C339.90080808 502.22371169 323.98445589 509.72028493 309.19415927 510.56346202 C305.15900514 510.63861755 301.12802279 510.65159167 297.09237671 510.64242554 C295.52787324 510.64616596 293.96337164 510.65076904 292.39887297 510.65615618 C288.11554668 510.66835338 283.83229869 510.66812959 279.54895902 510.66576743 C274.92300805 510.66535843 270.29708191 510.67640644 265.67114258 510.68588257 C256.61345879 510.70247601 247.55580103 510.70799138 238.49810331 510.70910732 C231.13240513 510.71005867 223.76671552 510.7141733 216.40102005 510.72050858 C195.50191319 510.73811719 174.60282684 510.74734815 153.70371251 510.74584763 C152.57768367 510.74576772 151.45165483 510.7456878 150.29150391 510.74560547 C148.60038974 510.74548283 148.60038974 510.74548283 146.87511165 510.74535771 C128.61137808 510.74454512 110.34772703 510.76367684 92.08401732 510.7918822 C73.31527813 510.82063793 54.54657914 510.83442099 35.77781737 510.83269465 C25.24694751 510.83203163 14.71616415 510.83748507 4.18531418 510.85905075 C-4.78236852 510.87729803 -13.74992551 510.88158086 -22.71761878 510.8680319 C-27.28862909 510.86151989 -31.85939848 510.86132085 -36.43038559 510.8787384 C-40.62401649 510.89455295 -44.81721713 510.89152085 -49.01083808 510.87417014 C-50.5189033 510.87111855 -52.02700131 510.8746623 -53.53502782 510.88589029 C-73.17396618 511.02229672 -89.89850189 505.48565802 -104.2578125 491.71484375 C-119.4856637 475.82375861 -125.15957672 457.74476719 -125.00793457 436.04345703 C-125.01255824 434.57261606 -125.01892087 433.10177973 -125.02684355 431.63095284 C-125.04335922 427.63890275 -125.03537276 423.64724094 -125.02289867 419.65519047 C-125.01377671 415.33062834 -125.02785301 411.00612889 -125.03881836 406.68157959 C-125.05653254 398.22940685 -125.05279543 389.77737681 -125.0411678 381.32519865 C-125.03210565 374.45118261 -125.03092146 367.57720634 -125.03526306 360.70318604 C-125.03587599 359.72194484 -125.03648893 358.74070364 -125.03712043 357.72972786 C-125.03839943 355.7358721 -125.03969629 353.74201634 -125.0410108 351.7481606 C-125.05239579 333.08579749 -125.03933562 314.42351318 -125.01780933 295.761163 C-124.99994025 279.77498069 -125.00304495 263.78891459 -125.02148438 247.80273438 C-125.04292792 229.20361101 -125.05129735 210.60455659 -125.03903532 192.00542259 C-125.03776123 190.01921973 -125.03650374 188.03301685 -125.03526306 186.04681396 C-125.03464596 185.06976191 -125.03402886 184.09270985 -125.03339306 183.08605015 C-125.0299506 176.22647824 -125.0357446 169.36695034 -125.04518127 162.50738525 C-125.05644144 154.13898959 -125.05327719 145.77074386 -125.0320583 137.40236521 C-125.02160167 133.13902703 -125.01733312 128.87593813 -125.03065491 124.61260223 C-125.04269759 120.69920256 -125.03582417 116.78627991 -125.0147447 112.87292266 C-125.0103283 111.46801586 -125.01243098 110.06306755 -125.02224785 108.6581881 C-125.15939318 87.37525569 -118.32576181 69.77764829 -103.75 54.25 C-86.79900156 37.85316882 -65.82621923 35.16772527 -43.375 35.3125 C-42.02343917 35.31752861 -40.67187652 35.32208909 -39.3203125 35.32617188 C-36.04682735 35.33786289 -32.77343814 35.35424971 -29.5 35.375 C-29.5314209 34.39273438 -29.5314209 34.39273438 -29.56347656 33.390625 C-29.64730383 30.38557672 -29.69886895 27.38077536 -29.75 24.375 C-29.78351563 23.34503906 -29.81703125 22.31507812 -29.8515625 21.25390625 C-29.94353121 14.03436243 -29.1564704 8.20596051 -24.01635742 2.82055664 C-17.48402209 -2.90167618 -7.81203662 -3.627017 0 0 Z M-78.5 84.375 C-94.68018744 104.86726673 -85.5 136.98343824 -85.5 159.375 C51.78 159.375 189.06 159.375 330.5 159.375 C335.31758467 121.58905758 335.31758467 121.58905758 322.26171875 82.90625 C312.26581511 74.21801447 301.12590972 74.08923915 288.5 74.25 C287.13932951 74.26005022 285.77865183 74.26917246 284.41796875 74.27734375 C281.11179353 74.3007918 277.8059912 74.33361144 274.5 74.375 C274.48598145 75.40270508 274.48598145 75.40270508 274.47167969 76.45117188 C274.4175809 79.59314435 274.33401176 82.73369067 274.25 85.875 C274.23582031 86.95265625 274.22164063 88.0303125 274.20703125 89.140625 C273.99906544 95.96190358 273.18538236 100.5817669 269.5 106.375 C263.13889979 111.43791649 257.41977697 112.172516 249.5 111.375 C244.6359737 109.73883759 241.2559845 106.66208699 238.5 102.375 C236.5 96.375 236.5 96.375 235.5 74.375 C160.92 74.375 86.34 74.375 9.5 74.375 C9.17 81.635 8.84 88.895 8.5 96.375 C5.11529548 105.40087872 5.11529548 105.40087872 2 107.8125 C1.4121875 108.28558594 0.824375 108.75867188 0.21875 109.24609375 C-4.4840139 112.33495459 -10.10675977 111.89811483 -15.5 111.375 C-20.20165601 110.01276523 -22.88624777 108.1461246 -25.9375 104.3125 C-28.06913562 100.30502504 -28.65052889 97.31072005 -28.81640625 92.83203125 C-28.85830078 91.75888672 -28.90019531 90.68574219 -28.94335938 89.58007812 C-28.98267578 88.46052734 -29.02199219 87.34097656 -29.0625 86.1875 C-29.10568359 85.05634766 -29.14886719 83.92519531 -29.19335938 82.75976562 C-29.29949099 79.96496646 -29.40154385 77.17007838 -29.5 74.375 C-33.42853871 74.2998145 -37.35678833 74.24591984 -41.28588867 74.21020508 C-43.26561236 74.1880253 -45.24513664 74.14987003 -47.22460938 74.11132812 C-59.52229388 74.01792799 -69.58186696 75.36714731 -78.5 84.375 Z M-85.5 198.375 C-85.5825 239.41875 -85.665 280.4625 -85.75 322.75 C-85.78641602 335.71071777 -85.82283203 348.67143555 -85.86035156 362.02490234 C-85.87372912 373.6405771 -85.87372912 373.6405771 -85.8817749 385.2562561 C-85.8855022 390.43087535 -85.90016274 395.60536926 -85.92230225 400.77993774 C-85.95051146 407.3829454 -85.95796057 413.98576185 -85.9522891 420.58884168 C-85.95347486 423.01058003 -85.9613939 425.43232681 -85.97686052 427.85401607 C-85.99681012 431.13013964 -85.99194123 434.4053425 -85.98101807 437.68148804 C-85.99266872 438.62482309 -86.00431938 439.56815815 -86.01632309 440.54007912 C-85.94504387 448.51549778 -83.73524643 454.95638781 -79.375 461.625 C-68.62132921 471.91111989 -57.03720375 472.67716941 -42.8112793 472.62896729 C-41.32499635 472.6312743 -39.83871455 472.63445244 -38.35243511 472.63842177 C-34.28554692 472.64674527 -30.21875299 472.64265565 -26.15186453 472.63644934 C-21.7591651 472.63191583 -17.36648164 472.63891307 -12.9737854 472.64440918 C-4.37531377 472.65329522 4.22312292 472.65138468 12.82159591 472.6455839 C19.81072383 472.64106431 26.79984198 472.64045579 33.78897095 472.64263153 C34.78428308 472.642938 35.77959521 472.64324446 36.80506831 472.64356022 C38.82712293 472.64419968 40.84917754 472.6448481 42.87123215 472.6455054 C61.82518768 472.65120638 80.77912386 472.64465443 99.73307621 472.63390467 C115.99100581 472.62496937 132.24890685 472.62652147 148.50683594 472.63574219 C167.39368631 472.64644891 186.28051972 472.65065708 205.1673727 472.64451766 C207.18192482 472.64388057 209.19647693 472.64325183 211.21102905 472.64263153 C212.20218745 472.64232298 213.19334585 472.64201443 214.21453935 472.64169653 C221.19402525 472.6399708 228.17350038 472.64288207 235.15298462 472.64759064 C243.66041386 472.65320392 252.1678062 472.65167358 260.67523122 472.64102915 C265.01455036 472.63577849 269.35380801 472.6337054 273.69312668 472.64032745 C277.66798993 472.64630152 281.64273488 472.64298778 285.61758745 472.63237235 C287.05286492 472.6301445 288.48815245 472.63126075 289.92342341 472.63612393 C301.88384793 472.6735304 311.73526188 471.88122726 321.5 464.375 C328.06313621 457.70155898 330.82503936 450.03660847 330.88724232 440.79824066 C330.87413533 439.37450008 330.87413533 439.37450008 330.86076355 437.92199707 C330.86461563 436.38411026 330.86461563 436.38411026 330.86854553 434.81515503 C330.87349552 431.38246829 330.85696631 427.95022448 330.84057617 424.51757812 C330.83965685 422.01352706 330.84005818 419.50947521 330.84167194 417.0054245 C330.84228007 410.98447655 330.82944715 404.96369892 330.81016796 398.94279358 C330.7885255 391.97454629 330.78618139 385.00636603 330.78381348 378.03808594 C330.76807737 359.65036933 330.72619385 341.26268263 330.6875 322.875 C330.5946875 261.2475 330.5946875 261.2475 330.5 198.375 C193.22 198.375 55.94 198.375 -85.5 198.375 Z " fill="#000000" transform="translate(133.5,1.625)"/>
</svg>
