<?xml version="1.0" encoding="UTF-8"?>
<svg version="1.1" xmlns="http://www.w3.org/2000/svg" width="512" height="512">
<path d="M0 0 C3.43577058 1.57317916 6.71122871 3.40857161 9.99121094 5.28125 C12.98528471 6.98312081 16.00451378 8.63490657 19.02734375 10.28515625 C24.63446555 13.35067224 30.22558932 16.44416087 35.81111145 19.54882812 C41.96093389 22.96656455 48.12088851 26.36576243 54.28262329 29.76196289 C57.29956615 31.42508571 60.31575922 33.08956722 63.33203125 34.75390625 C64.54036102 35.42057937 65.74869436 36.08724604 66.95703125 36.75390625 C161.20703124 88.75390625 161.20703124 88.75390625 163.01940918 89.75384521 C164.22814229 90.42072824 165.43688253 91.08759835 166.64562988 91.75445557 C169.66040504 93.41770631 172.67505738 95.0811789 175.68945312 96.74511719 C182.4546037 100.4791051 189.22311799 104.20688058 195.9949646 107.92871094 C201.4164484 110.9097897 206.82859551 113.90753681 212.23925781 116.90820312 C215.42659807 118.66808425 218.62428452 120.40768774 221.82421875 122.14453125 C223.70224437 123.18022573 225.5798752 124.21663654 227.45703125 125.25390625 C228.28847656 125.69766602 229.11992187 126.14142578 229.9765625 126.59863281 C236.47930545 130.23140477 241.38359908 134.75178802 244.99609375 141.328125 C246.58109314 147.89002247 246.85666544 155.93006361 244.08203125 162.19140625 C238.65389092 170.62871658 229.93552969 175.06806545 221.26953125 179.56640625 C219.12706874 180.69690253 216.98511747 181.82836838 214.84375 182.9609375 C213.90490967 183.45053955 212.96606934 183.9401416 211.9987793 184.44458008 C209.43483322 185.78604819 209.43483322 185.78604819 206.58203125 187.75390625 C206.13201748 189.75325778 206.13201748 189.75325778 206.21022034 192.09642029 C206.20346283 193.0088298 206.19670532 193.92123932 206.18974304 194.86129761 C206.19746231 195.8654068 206.20518158 196.86951599 206.21313477 197.90405273 C206.20936829 198.95956833 206.20560181 200.01508392 206.20172119 201.10258484 C206.19527097 203.40194751 206.19563528 205.70133683 206.2019062 208.0007 C206.21098983 211.64599831 206.20082067 215.2907792 206.18528748 218.93605042 C206.14512904 229.30297992 206.14397666 239.66987092 206.14624023 250.03686523 C206.1462915 256.374065 206.12703489 262.71098881 206.09690666 269.04811287 C206.08611635 272.62816091 206.09819676 276.20767382 206.11073303 279.78770447 C206.1018211 282.0048779 206.09174411 284.22204706 206.08032227 286.43920898 C206.09006577 287.4251001 206.09980927 288.41099121 206.10984802 289.42675781 C206.00079368 300.10508174 202.54626864 308.73259711 195.58203125 316.75390625 C194.92203125 317.5221875 194.26203125 318.29046875 193.58203125 319.08203125 C184.67007437 329.20346799 175.20586034 338.44589821 164.58203125 346.75390625 C163.57398438 347.55570312 162.5659375 348.3575 161.52734375 349.18359375 C135.44267628 369.75390625 135.44267628 369.75390625 129.58203125 369.75390625 C129.5909137 370.68827515 129.59979614 371.62264404 129.60894775 372.58532715 C129.69021111 381.41245274 129.75008156 390.23950193 129.78927994 399.06691742 C129.81011014 403.60466667 129.83834371 408.14211272 129.88378906 412.6796875 C129.9274106 417.06284037 129.95120268 421.44570252 129.96154022 425.82905579 C129.96890244 427.49714226 129.98327906 429.16521373 130.00495148 430.83317566 C130.2247188 448.45588905 130.2247188 448.45588905 123.6171875 455.99609375 C122.96621094 456.53492188 122.31523437 457.07375 121.64453125 457.62890625 C120.99613281 458.18320312 120.34773438 458.7375 119.6796875 459.30859375 C113.17845568 463.78802722 106.21062208 463.42854353 98.58203125 462.75390625 C91.92243792 461.07305042 87.39655678 456.29012303 83.58203125 450.75390625 C81.88140879 447.13257822 81.33594187 444.30963158 81.35498047 440.32104492 C81.35513153 439.26032272 81.35528259 438.19960052 81.35543823 437.10673523 C81.3657608 435.97323135 81.37608337 434.83972748 81.38671875 433.671875 C81.39096359 431.91790154 81.39096359 431.91790154 81.39529419 430.12849426 C81.40647563 426.39936017 81.43157691 422.67046757 81.45703125 418.94140625 C81.46706366 416.41081076 81.47618906 413.88021151 81.484375 411.34960938 C81.50640833 405.15095948 81.53986591 398.95245012 81.58203125 392.75390625 C80.596548 393.0498896 80.596548 393.0498896 79.59115601 393.35185242 C55.56021828 400.54178003 55.56021828 400.54178003 44.20703125 402.56640625 C42.73556641 402.85161133 42.73556641 402.85161133 41.234375 403.14257812 C24.15476238 406.3245034 7.30321604 407.12826007 -10.04296875 407.06640625 C-11.10378662 407.06458344 -12.16460449 407.06276062 -13.25756836 407.06088257 C-28.52748307 407.01668079 -43.37957555 406.6183621 -58.41796875 403.75390625 C-59.3625293 403.58761719 -60.30708984 403.42132813 -61.28027344 403.25 C-99.70525344 396.43571783 -137.69174453 381.73893951 -169.41796875 358.75390625 C-170.47113281 357.99335938 -171.52429688 357.2328125 -172.609375 356.44921875 C-184.18772155 347.90224007 -194.97896098 338.63863042 -205.41796875 328.75390625 C-206.67673828 327.57634766 -206.67673828 327.57634766 -207.9609375 326.375 C-217.71353555 316.99169138 -226.21381161 306.28675603 -226.93695068 292.25508118 C-226.96577693 290.3060702 -226.97378109 288.35666963 -226.96386719 286.4074707 C-226.97420486 285.33297165 -226.98454254 284.2584726 -226.99519348 283.15141296 C-227.02442436 279.63984791 -227.02611651 276.12886419 -227.02734375 272.6171875 C-227.04233865 270.16667088 -227.05906853 267.71616431 -227.07745361 265.26567078 C-227.12099176 258.84603387 -227.14109635 252.42653329 -227.15618896 246.0067749 C-227.1758088 239.4438882 -227.21777335 232.88114765 -227.2578125 226.31835938 C-227.33296808 213.46359137 -227.38410824 200.60884602 -227.41796875 187.75390625 C-228.25980713 187.30587646 -229.10164551 186.85784668 -229.96899414 186.39624023 C-233.12742567 184.71098528 -236.27667665 183.0091533 -239.42358398 181.30249023 C-240.77990552 180.56983512 -242.1385912 179.8415375 -243.49975586 179.11791992 C-262.7566343 168.8706864 -262.7566343 168.8706864 -265.98046875 159.96484375 C-267.41168464 152.73209203 -267.95121054 144.04725644 -263.82958984 137.61889648 C-258.52499532 130.61062987 -251.01203826 126.58696337 -243.35546875 122.62890625 C-241.20731341 121.49281181 -239.06020292 120.35473989 -236.9140625 119.21484375 C-235.8297998 118.64088867 -234.74553711 118.06693359 -233.62841797 117.47558594 C-228.67631484 114.81990295 -223.79734532 112.04031262 -218.91796875 109.25390625 C-210.14000737 104.2566078 -201.28857769 99.41292519 -192.39404297 94.62670898 C-185.56116773 90.94027597 -178.78897764 87.15921683 -172.04296875 83.31640625 C-162.68925601 77.99091708 -153.24292737 72.85546491 -143.75610352 67.77148438 C-135.43166094 63.3085632 -127.16052003 58.76011918 -118.91699219 54.14990234 C-113.8177206 51.30136435 -108.71118946 48.46586321 -103.60546875 45.62890625 C-102.46070068 44.99275391 -101.31593262 44.35660156 -100.13647461 43.70117188 C-90.57773188 38.39124831 -81.00764642 33.10199291 -71.43017578 27.82592773 C-70.21906676 27.15870732 -69.00796652 26.49147094 -67.796875 25.82421875 C-67.19552734 25.49291458 -66.59417969 25.16161041 -65.97460938 24.82026672 C-62.17565701 22.72613217 -58.38055665 20.62517842 -54.58813477 18.51924133 C-52.00647667 17.08583523 -49.42364702 15.65454705 -46.84075928 14.22335815 C-45.62928547 13.55132189 -44.41835968 12.87829646 -43.20806885 12.20413208 C-36.85243184 8.66433064 -30.46265576 5.18833172 -24 1.84765625 C-22.35414917 0.99010742 -22.35414917 0.99010742 -20.67504883 0.11523438 C-13.62879592 -2.82981519 -7.11884805 -2.5953286 0 0 Z M-15.73046875 53.10546875 C-17.07685425 53.87733521 -17.07685425 53.87733521 -18.45043945 54.66479492 C-19.91936646 55.51328003 -19.91936646 55.51328003 -21.41796875 56.37890625 C-30.12447479 61.35789414 -38.88782644 66.20844008 -47.73046875 70.94140625 C-57.1729007 76.00076291 -66.56945329 81.12917965 -75.91894531 86.35791016 C-81.0182169 89.20644815 -86.12474804 92.04194929 -91.23046875 94.87890625 C-92.37523682 95.51505859 -93.52000488 96.15121094 -94.69946289 96.80664062 C-108.53250652 104.49095711 -122.392586 112.12625323 -136.2512207 119.76428223 C-140.51540787 122.11449861 -144.77936371 124.46513395 -149.04296875 126.81640625 C-149.63449738 127.14260956 -150.226026 127.46881287 -150.83547974 127.80490112 C-164.04625446 135.09133664 -177.23448444 142.41823093 -190.41796875 149.75390625 C-190.41796875 150.41390625 -190.41796875 151.07390625 -190.41796875 151.75390625 C-189.69134033 152.15480469 -188.96471191 152.55570312 -188.21606445 152.96875 C-182.72398885 155.99886068 -177.23191325 159.02897135 -171.73983765 162.05908203 C-171.06256622 162.43274902 -170.3852948 162.80641602 -169.6875 163.19140625 C-166.93098958 164.71223958 -164.17447917 166.23307292 -161.41796875 167.75390625 C-160.47434479 168.27452637 -160.47434479 168.27452637 -159.51165771 168.80566406 C-157.09572856 170.13859049 -154.6797994 171.47151693 -152.26387024 172.80444336 C-151.38048225 173.29182983 -151.38048225 173.29182983 -150.47924805 173.7890625 C-149.89251312 174.11277832 -149.3057782 174.43649414 -148.70126343 174.77001953 C-148.11277618 175.09470215 -147.52428894 175.41938477 -146.91796875 175.75390625 C-145.71199544 176.41927083 -144.50602214 177.08463542 -143.30004883 177.75 C-142.70090164 178.08056396 -142.10175446 178.41112793 -141.48445129 178.75170898 C-70.79296873 217.75390626 -70.79296873 217.75390626 -68.98083496 218.75370789 C-67.77128508 219.42104329 -66.56173103 220.08837116 -65.35217285 220.75569153 C-62.34991874 222.41206494 -59.34773469 224.06856507 -56.34570312 225.7253418 C-50.68676553 228.84824807 -45.02709827 231.96981187 -39.3651123 235.08718872 C-36.69261063 236.55871108 -34.02048523 238.03091598 -31.34838867 239.50317383 C-30.07530198 240.20436171 -28.80203128 240.90521563 -27.52856445 241.60571289 C-25.76206587 242.57743986 -23.99625326 243.55041355 -22.23046875 244.5234375 C-20.72419922 245.35258667 -20.72419922 245.35258667 -19.1875 246.19848633 C-16.41796875 247.75390625 -16.41796875 247.75390625 -13.8671875 249.58081055 C-11.47660674 251.04758867 -11.47660674 251.04758867 -8.96826172 250.13012695 C-8.12666504 249.67597412 -7.28506836 249.22182129 -6.41796875 248.75390625 C-5.04535889 248.06204224 -5.04535889 248.06204224 -3.64501953 247.35620117 C-2.6445459 246.82099854 -1.64407227 246.2857959 -0.61328125 245.734375 C0.51682373 245.13028809 1.64692871 244.52620117 2.8112793 243.90380859 C4.02666253 243.24992085 5.24191021 242.5957811 6.45703125 241.94140625 C7.07341461 241.61054016 7.68979797 241.27967407 8.32485962 240.93878174 C19.68803348 234.83713531 30.93398825 228.53930597 42.13427734 222.14355469 C45.93479876 219.98590778 49.75657292 217.86695011 53.58203125 215.75390625 C53.58203125 215.09390625 53.58203125 214.43390625 53.58203125 213.75390625 C52.85540283 213.35300781 52.12877441 212.95210937 51.38012695 212.5390625 C50.34976318 211.97058594 49.31939941 211.40210938 48.2578125 210.81640625 C47.6930571 210.50483582 47.1283017 210.19326538 46.5464325 209.87225342 C43.34654069 208.10687434 40.14678877 206.34124246 36.94726562 204.57519531 C30.28006436 200.89542529 23.61126036 197.21864388 16.9375 193.55078125 C10.92774086 190.24774553 4.92648696 186.92962643 -1.07080078 183.60400391 C-4.27292065 181.83407945 -7.48356545 180.08049837 -10.6953125 178.328125 C-12.58250465 177.28340678 -14.46925321 176.23788669 -16.35546875 175.19140625 C-17.19529297 174.73926758 -18.03511719 174.28712891 -18.90039062 173.82128906 C-24.94734211 170.43209049 -29.4164995 166.47092057 -32.73046875 160.31640625 C-34.95998947 152.00637449 -34.78820947 145.15578186 -30.66796875 137.50390625 C-26.19310933 132.03463363 -21.56013247 128.41448661 -14.4296875 127.27734375 C-4.71077662 126.84336183 1.80756609 129.60886649 9.99121094 134.28125 C12.98528471 135.98312081 16.00451378 137.63490657 19.02734375 139.28515625 C24.63446555 142.35067224 30.22558932 145.44416087 35.81111145 148.54882812 C41.96311842 151.9677786 48.1252815 155.36814494 54.28921509 158.76553345 C56.67387195 160.0801858 59.05789542 161.39598452 61.44194031 162.71174622 C66.50493966 165.50595417 71.56908818 168.29806027 76.6348877 171.08718872 C79.30738937 172.55871108 81.97951477 174.03091598 84.65161133 175.50317383 C85.92469802 176.20436171 87.19796872 176.90521563 88.47143555 177.60571289 C90.23793413 178.57743986 92.00374674 179.55041355 93.76953125 180.5234375 C94.77371094 181.07620361 95.77789062 181.62896973 96.8125 182.19848633 C99.58203125 183.75390625 99.58203125 183.75390625 102.1328125 185.58081055 C104.52339326 187.04758867 104.52339326 187.04758867 107.03173828 186.13012695 C108.2941333 185.44889771 108.2941333 185.44889771 109.58203125 184.75390625 C110.49710449 184.29266357 111.41217773 183.8314209 112.35498047 183.35620117 C113.3554541 182.82099854 114.35592773 182.2857959 115.38671875 181.734375 C116.51682373 181.13028809 117.64692871 180.52620117 118.8112793 179.90380859 C120.02666253 179.24992085 121.24191021 178.5957811 122.45703125 177.94140625 C123.07341461 177.61054016 123.68979797 177.27967407 124.32485962 176.93878174 C135.68803348 170.83713531 146.93398825 164.53930597 158.13427734 158.14355469 C161.93479876 155.98590778 165.75657292 153.86695011 169.58203125 151.75390625 C169.58203125 151.09390625 169.58203125 150.43390625 169.58203125 149.75390625 C168.85540283 149.35300781 168.12877441 148.95210938 167.38012695 148.5390625 C49.95703124 83.75390625 49.95703124 83.75390625 48.14489746 82.75410461 C46.93534758 82.08676921 45.72579353 81.41944134 44.51623535 80.75212097 C41.51398124 79.09574756 38.51179719 77.43924743 35.50976562 75.7824707 C29.85082803 72.65956443 24.19116077 69.53800063 18.5291748 66.42062378 C15.85667313 64.94910142 13.18454773 63.47689652 10.51245117 62.00463867 C9.23936448 61.30345079 7.96609378 60.60259687 6.69262695 59.90209961 C4.92612837 58.93037264 3.16031576 57.95739895 1.39453125 56.984375 C-0.11173828 56.15522583 -0.11173828 56.15522583 -1.6484375 55.30932617 C-3.50818458 54.26485785 -5.34466719 53.17794202 -7.15625 52.05200195 C-10.85963071 49.9264757 -12.23233853 51.08230711 -15.73046875 53.10546875 Z M-178.41796875 214.75390625 C-178.83883854 223.69884727 -179.15666657 232.64028795 -179.35058784 241.59303856 C-179.44377199 245.75280441 -179.56956997 249.90570976 -179.77587891 254.06152344 C-181.38955774 273.89643572 -181.38955774 273.89643572 -174.63647461 291.81347656 C-170.37237292 296.48744851 -165.57621539 300.13432821 -160.41796875 303.75390625 C-158.1631545 305.53575714 -155.93813018 307.3502111 -153.71325684 309.16917419 C-150.37933047 311.8337958 -146.90069635 314.28921988 -143.41796875 316.75390625 C-142.81484863 317.19105957 -142.21172852 317.62821289 -141.59033203 318.07861328 C-92.82083085 353.30778745 -30.24158976 364.43576453 28.48535156 355.54150391 C46.36340815 352.62279305 65.28702199 347.90141088 81.58203125 339.75390625 C81.58203125 312.36390625 81.58203125 284.97390625 81.58203125 256.75390625 C77.42164429 258.1407019 74.52021996 259.18701318 70.87890625 261.30078125 C69.99420654 261.80891357 69.10950684 262.3170459 68.19799805 262.84057617 C67.252229 263.3894751 66.30645996 263.93837402 65.33203125 264.50390625 C56.71076551 269.44533801 48.03113018 274.25326139 39.26953125 278.94140625 C32.47795132 282.5759979 25.69545933 286.21957323 18.97485352 289.98413086 C16.79396412 291.2052317 14.60688062 292.41444811 12.41796875 293.62109375 C10.02025783 294.943439 7.66388977 296.29953209 5.30859375 297.69921875 C-2.24360628 301.96095892 -8.80488137 303.3602055 -17.41796875 301.75390625 C-22.17361069 300.02951157 -26.44095531 297.73082274 -30.82714844 295.2265625 C-33.82122221 293.52469169 -36.84045128 291.87290593 -39.86328125 290.22265625 C-45.47040305 287.15714026 -51.06152682 284.06365163 -56.64704895 280.95898438 C-62.79687139 277.54124795 -68.95682601 274.14205007 -75.11856079 270.74584961 C-78.13550365 269.08272679 -81.15169672 267.41824528 -84.16796875 265.75390625 C-85.37629852 265.08723313 -86.58463186 264.42056646 -87.79296875 263.75390625 C-95.04296875 259.75390625 -95.04296875 259.75390625 -96.85543823 258.75392151 C-98.06387151 258.08720075 -99.27230657 257.42048322 -100.48074341 256.75376892 C-103.50006219 255.08795627 -106.51935009 253.42208771 -109.53857422 251.75610352 C-114.99397708 248.74592644 -120.44959143 245.73613638 -125.90638733 242.72848511 C-128.34676888 241.38335322 -130.78695228 240.03786205 -133.22714233 238.69238281 C-135.02596747 237.70077823 -136.82511394 236.70975841 -138.62426758 235.71875 C-144.81863893 232.30474626 -151.00204139 228.87223065 -157.171875 225.4140625 C-158.4320891 224.70899461 -159.69234238 224.00399673 -160.95263672 223.29907227 C-163.34360304 221.96170985 -165.73143062 220.61895746 -168.11767578 219.27319336 C-169.17970215 218.67901611 -170.24172852 218.08483887 -171.3359375 217.47265625 C-172.27203857 216.94607422 -173.20813965 216.41949219 -174.17260742 215.87695312 C-176.29766602 214.60479615 -176.29766602 214.60479615 -178.41796875 214.75390625 Z M149.953125 217.78125 C148.83615234 218.40837891 147.71917969 219.03550781 146.56835938 219.68164062 C145.98642822 220.01123779 145.40449707 220.34083496 144.80493164 220.68041992 C143.02549696 221.68802815 141.24259673 222.68926217 139.45898438 223.68945312 C134.22580916 226.30871019 134.22580916 226.30871019 129.58203125 229.75390625 C129.48698874 232.27931627 129.45645967 234.77727751 129.46850586 237.30297852 C129.46835983 238.09316376 129.46821381 238.883349 129.46806335 239.69747925 C129.46876268 242.32178447 129.47655598 244.94601961 129.484375 247.5703125 C129.48623911 249.3849229 129.48766305 251.19953381 129.48866272 253.0141449 C129.49248846 257.79980855 129.50231921 262.58544205 129.5133667 267.37109375 C129.52357962 272.25064689 129.52816008 277.13020489 129.53320312 282.00976562 C129.54394143 291.59115911 129.56101852 301.17253018 129.58203125 310.75390625 C133.83600597 307.96872342 137.59990464 305.08868849 141.33203125 301.62890625 C142.275625 300.76007813 143.21921875 299.89125 144.19140625 298.99609375 C144.70359711 298.49285583 145.21578796 297.98961792 145.74349976 297.47113037 C147.58203125 295.75390625 147.58203125 295.75390625 150.0663147 293.83013916 C154.82463618 289.82031707 158.04913194 286.57126611 158.64514732 280.15058517 C158.77340082 276.50676974 158.6863712 272.88864754 158.55859375 269.24609375 C158.53990619 267.66859453 158.52568873 266.09103664 158.51571655 264.51345825 C158.47781382 260.39208323 158.37985114 256.27432044 158.26867676 252.15435791 C158.16575766 247.93803772 158.12057703 243.72112463 158.0703125 239.50390625 C157.9635619 231.25226161 157.79325562 223.00353513 157.58203125 214.75390625 C154.53918653 214.75390625 152.58974509 216.29690153 149.953125 217.78125 Z " fill="#000000" transform="translate(266.41796875,41.24609375)"/>
</svg>
