<?xml version="1.0" encoding="UTF-8"?>
<svg version="1.1" xmlns="http://www.w3.org/2000/svg" width="512" height="512">
<path d="M0 0 C1.7850905 -0.00679667 1.7850905 -0.00679667 3.60624343 -0.01373065 C6.89237255 -0.02416741 10.17836331 -0.02570622 13.46450365 -0.02334189 C17.01544457 -0.02293243 20.56635328 -0.03398526 24.11727905 -0.04345703 C31.06820813 -0.06004057 38.01910327 -0.0655654 44.97005048 -0.06668179 C50.62335736 -0.06763361 56.27665309 -0.07175058 61.92995644 -0.07808304 C77.97540159 -0.09568895 94.02082003 -0.10492304 110.0662749 -0.10342209 C111.36267102 -0.10330222 111.36267102 -0.10330222 112.68525696 -0.10317993 C113.55058242 -0.10309817 114.41590789 -0.10301641 115.30745534 -0.10293217 C129.32410649 -0.10211966 143.34065009 -0.12125017 157.35727014 -0.14945666 C171.76638196 -0.17822302 186.17544138 -0.19199487 200.58458263 -0.19026911 C208.66737304 -0.18960646 216.75005071 -0.19504374 224.83281517 -0.21662521 C231.71598012 -0.23488656 238.59898124 -0.23914396 245.48215999 -0.22560637 C248.98967734 -0.21910128 252.49688084 -0.21886939 256.00436783 -0.23631287 C259.81821192 -0.25181161 263.63124107 -0.24242513 267.44506836 -0.22705078 C268.53790137 -0.23733791 269.63073437 -0.24762503 270.75668353 -0.25822389 C285.15295657 -0.13067275 298.68699691 5.14449574 309.03999329 15.26742554 C319.78680269 28.89579702 322.34378114 40.38425324 322.30741882 57.47938538 C322.31115771 59.14344625 322.31576019 60.80750538 322.32114947 62.47156173 C322.33336548 67.034645 322.33312065 71.59765487 322.33076072 76.16075075 C322.3303522 81.0859333 322.34139512 86.01109243 322.35087585 90.93626404 C322.36747939 100.58230004 322.37298512 110.2283116 322.37410061 119.8743607 C322.37505143 127.71683515 322.37916345 135.55930155 322.38550186 143.40177345 C322.40311286 165.64502021 322.41234101 187.88824768 322.41084091 210.13150146 C322.410761 211.33030904 322.41068109 212.52911662 322.41059875 213.76425171 C322.41051699 214.96452603 322.41043523 216.16480035 322.41035099 217.40144662 C322.40953824 236.84996707 322.42867372 256.29841005 322.45687549 275.74690809 C322.48561579 295.72471888 322.49941514 315.70249191 322.49768794 335.6803239 C322.49702441 346.89301724 322.50250031 358.10562936 322.52404404 369.31830406 C322.54227093 378.86577504 322.54659077 388.413128 322.53302519 397.96060886 C322.52650307 402.82907321 322.52635103 407.69731123 322.54373169 412.56575394 C322.55950094 417.0288565 322.55655959 421.49155401 322.53916343 425.95464692 C322.53610199 427.56297483 322.53969342 429.17133325 322.55088358 430.77962514 C322.65978166 447.55136578 318.85234659 459.97483526 307.35249329 472.45492554 C295.7813833 483.46866028 282.2373082 486.74438444 266.66816711 486.64837646 C264.88914237 486.65539642 264.88914237 486.65539642 263.07417774 486.6625582 C259.81788398 486.67237846 256.561932 486.66894683 253.30564737 486.65959954 C249.78001597 486.6527655 246.25442808 486.66331169 242.72880554 486.67153931 C235.836219 486.68483272 228.94373084 486.68201859 222.05114055 486.67330138 C216.44606775 486.66650787 210.84102239 486.6656153 205.23594666 486.66887283 C204.03630035 486.66956238 204.03630035 486.66956238 202.81241876 486.67026586 C201.18737593 486.6712251 199.56233312 486.67219774 197.93729031 486.67318363 C182.72301198 486.68172466 167.508788 486.67192365 152.29451859 486.65578254 C139.25880326 486.64238052 126.2231681 486.64470898 113.18745422 486.65853882 C98.02514547 486.67461742 82.86288428 486.68090081 67.7005682 486.67170203 C66.08172545 486.67074645 64.46288268 486.66980333 62.84403992 486.66887283 C61.64949455 486.66817859 61.64949455 486.66817859 60.43081695 486.66747033 C54.83679577 486.66488727 49.24280493 486.66923662 43.64878845 486.67631149 C36.8253579 486.68475208 30.0020308 486.68239283 23.17861199 486.66646926 C19.70162661 486.65862079 16.22481329 486.6554359 12.74782944 486.66541672 C8.96898945 486.67365066 5.19062914 486.66328749 1.41181946 486.64837646 C0.32658399 486.65506863 -0.75865149 486.6617608 -1.87677288 486.66865575 C-11.30083048 486.59684477 -20.64340985 485.12467826 -28.89750671 480.32992554 C-29.75215515 479.8465271 -30.60680359 479.36312866 -31.48735046 478.86508179 C-43.69408992 470.97794682 -50.45793662 459.13776883 -53.96000671 445.26742554 C-54.21185571 441.82664561 -54.21185571 441.82664561 -54.21448231 438.14301682 C-54.21768879 437.45782087 -54.22089526 436.77262493 -54.22419891 436.06666547 C-54.23247981 433.77776598 -54.2265814 431.48912946 -54.22070312 429.20022583 C-54.22372469 427.53972777 -54.2276142 425.8792311 -54.23229569 424.21873689 C-54.24258397 419.66093083 -54.24039174 415.10320337 -54.2361151 410.54539084 C-54.23364935 405.62773015 -54.24266023 400.71008845 -54.25015259 395.79243469 C-54.26290637 386.15962976 -54.26469238 376.52685269 -54.26235233 366.89404073 C-54.26056956 359.06344394 -54.26231792 351.23285561 -54.26657677 343.40225983 C-54.26717196 342.28791363 -54.26776714 341.17356743 -54.26838037 340.02545317 C-54.26959212 337.76165595 -54.27080626 335.49785873 -54.27202275 333.23406151 C-54.28290116 312.00003128 -54.28073452 290.76601692 -54.2746379 269.53198579 C-54.26946998 250.11116326 -54.28072036 230.69039091 -54.29973612 211.26957831 C-54.3191142 191.32570997 -54.32737047 171.38186538 -54.32361287 151.43798757 C-54.32170059 140.242127 -54.32419092 129.04630913 -54.33832741 117.85045624 C-54.35024187 108.3179223 -54.35164542 98.78545733 -54.33953724 89.25292245 C-54.3336487 84.39082646 -54.33254846 79.52885661 -54.34453964 74.66676903 C-54.35539886 70.2118072 -54.35229456 65.75707684 -54.33827796 61.30212584 C-54.33563112 59.69447851 -54.33799715 58.08681304 -54.34601382 56.47918352 C-54.43019801 38.33083592 -50.72837653 26.25405808 -37.96000671 13.26742554 C-37.38121765 12.67574585 -36.80242859 12.08406616 -36.20610046 11.47445679 C-26.16196255 2.05959016 -13.21051682 -0.03706174 0 0 Z M-19.39750671 38.82992554 C-19.87059265 39.4087146 -20.34367859 39.98750366 -20.83110046 40.58383179 C-23.26432179 44.21261515 -23.08790597 47.5670126 -23.09422779 51.8014946 C-23.09658002 52.47145494 -23.09893225 53.14141527 -23.10135576 53.83167744 C-23.10805068 56.0927266 -23.10758739 58.35371836 -23.10717773 60.61477661 C-23.11047605 62.24579877 -23.11420154 63.8768201 -23.11831921 65.50784039 C-23.12835093 70.00257251 -23.13205788 74.49729128 -23.13470852 78.992033 C-23.13860806 83.83470097 -23.14818659 88.67735833 -23.15692139 93.52001953 C-23.17669491 105.22079271 -23.18675278 116.92156677 -23.19564918 128.62235248 C-23.20003031 134.129423 -23.20539754 139.63649256 -23.21063805 145.14356232 C-23.22765062 163.44473954 -23.24214575 181.74591615 -23.24938679 200.04710007 C-23.25129675 204.79762523 -23.25321707 209.54815039 -23.25517273 214.29867554 C-23.25565647 215.47942631 -23.25614021 216.66017708 -23.25663861 217.87670818 C-23.2649425 237.01273671 -23.29028536 256.1487028 -23.32275341 275.28470406 C-23.35579944 294.92105958 -23.37383329 314.55738335 -23.37703103 334.19376683 C-23.37919832 345.22302576 -23.38797905 356.25219361 -23.4134922 367.28142548 C-23.43516559 376.67254493 -23.44326617 386.06355119 -23.43352542 395.45469281 C-23.42897107 400.24744999 -23.43093279 405.03997347 -23.45028687 409.83269882 C-23.46785027 414.21981514 -23.46697656 418.60652608 -23.45138957 422.99364629 C-23.4490031 424.58115874 -23.45339069 426.16869875 -23.46521822 427.75616893 C-23.55497861 439.86093579 -23.55497861 439.86093579 -17.43266296 449.97445679 C-12.74242813 453.65128908 -8.90884387 455.5148627 -2.93178082 455.52469444 C-1.44032182 455.53436778 -1.44032182 455.53436778 0.08126765 455.54423654 C1.16627581 455.54113934 2.25128396 455.53804213 3.36917114 455.53485107 C4.52752761 455.53938219 5.68588408 455.5439133 6.87934226 455.54858172 C10.0906906 455.55905129 13.30189811 455.56055167 16.5132581 455.55819297 C19.97826626 455.55778472 23.44324105 455.56882477 26.90823364 455.57830811 C33.69546777 455.59491736 40.48266716 455.60041762 47.26991991 455.60153286 C52.78747205 455.60248339 58.30501274 455.60659393 63.82256126 455.61293411 C79.4683591 455.63054649 95.1141295 455.63977301 110.75993732 455.63827316 C111.60331526 455.63819325 112.4466932 455.63811334 113.31562805 455.63803101 C114.16003666 455.63794924 115.00444526 455.63786748 115.874442 455.63778324 C129.55840342 455.63697039 143.24225476 455.65610784 156.92618433 455.68430774 C170.97922332 455.7130396 185.03220863 455.72684786 199.08527774 455.72512019 C206.97401146 455.72445638 214.86262979 455.72994458 222.75133705 455.75147629 C229.46819892 455.76969211 236.18489308 455.77403222 242.90176896 455.76045744 C246.32763801 455.75392966 249.75318535 455.7538032 253.17902374 455.77116394 C256.89625869 455.78657309 260.61264808 455.77733543 264.3298645 455.76190186 C265.94733848 455.77733254 265.94733848 455.77733254 267.5974887 455.79307497 C275.04334668 455.72473651 280.11175329 454.38423372 286.06343079 449.66195679 C286.50944641 449.13988647 286.95546204 448.61781616 287.41499329 448.07992554 C287.87647766 447.57074585 288.33796204 447.06156616 288.81343079 446.53695679 C293.20801874 438.40556951 292.32237433 428.62592507 292.29396057 419.66757202 C292.29626721 418.08229396 292.2994451 416.49701698 292.30341506 414.91174221 C292.31174371 410.57121825 292.30764657 406.23078254 292.30144262 401.89025831 C292.29691124 397.20307799 292.3039053 392.51591268 292.30940247 387.82873535 C292.31829077 378.6527412 292.31637696 369.47677978 292.31057718 360.30078435 C292.30605849 352.84254898 292.30544869 345.38432277 292.30762482 337.92608643 C292.30808452 336.33320522 292.30808452 336.33320522 292.3085535 334.70814461 C292.30919296 332.55080199 292.30984139 330.39345938 292.31049868 328.23611677 C292.31620033 308.01171875 292.30964668 287.78733886 292.29889795 267.56294382 C292.28996259 250.21345208 292.29151468 232.8639871 292.30073547 215.51449585 C292.31144102 195.36194067 292.31565102 175.20940138 292.30951095 155.05684376 C292.30887386 152.90748406 292.30824511 150.75812435 292.30762482 148.60876465 C292.30731627 147.5512676 292.30700771 146.49377056 292.30668981 145.40422815 C292.30496373 137.95586257 292.30787612 130.50750708 292.31258392 123.05914307 C292.3181959 113.98078897 292.3166696 104.90246946 292.30602244 95.82411933 C292.30077003 91.19316311 292.29870168 86.56226453 292.30532074 81.93130875 C292.31129116 77.68998727 292.30798703 73.44877674 292.29736564 69.20746529 C292.29513625 67.67528395 292.29625752 66.14309318 292.30111721 64.61091793 C292.8426222 50.2942104 292.8426222 50.2942104 286.85249329 37.89242554 C286.02684875 36.95269897 286.02684875 36.95269897 285.18452454 35.99398804 C278.75225995 30.81537065 272.40536443 30.83555457 264.4703064 30.87974548 C263.31024108 30.87435995 262.15017576 30.86897441 260.95495695 30.86342567 C257.74805981 30.85162045 254.54149719 30.85320515 251.33459723 30.86059248 C247.8709795 30.86533014 244.40741705 30.85280906 240.94381714 30.84257507 C234.1635213 30.82539358 227.38331815 30.82454568 220.60300619 30.82978798 C215.09121818 30.83383202 209.57945753 30.83238334 204.06767082 30.82703972 C203.28272644 30.8262913 202.49778206 30.82554287 201.68905149 30.82477177 C200.09436007 30.82324027 198.49966866 30.82170192 196.90497725 30.82015681 C181.95599797 30.80643419 167.00707104 30.81186784 152.05809294 30.82334202 C138.38718697 30.83327482 124.71641632 30.82033252 111.04553122 30.79640783 C97.00146278 30.77201558 82.95745737 30.76240922 68.91336817 30.76906055 C61.0313784 30.77255241 53.14949273 30.77032289 45.267519 30.75280952 C38.55801612 30.73808599 31.84869063 30.73745403 25.13919122 30.75488044 C21.71736512 30.76339156 18.29585588 30.76553768 14.87404633 30.75022888 C11.16128578 30.73706051 7.44938714 30.74853136 3.73666382 30.76622009 C2.65971207 30.75661509 1.58276033 30.74701008 0.47317368 30.73711401 C-7.41728156 30.81448392 -14.22827548 32.28418513 -19.39750671 38.82992554 Z " fill="#000000" transform="translate(121.96000671386719,12.732574462890625)"/>
<path d="M0 0 C1.15453709 0.94782958 2.30107034 1.90553394 3.4375 2.875 C4.00210938 3.2978125 4.56671875 3.720625 5.1484375 4.15625 C19.03255088 14.9619853 26.29271114 31.95174565 28.90625 48.91796875 C30.90350858 67.18834557 26.67914792 84.58761352 16.4375 99.875 C15.7775 100.865 15.1175 101.855 14.4375 102.875 C15.97857422 103.60203125 15.97857422 103.60203125 17.55078125 104.34375 C26.15703215 108.47766604 33.94313368 112.8896516 41.4375 118.875 C42.04464844 119.3184375 42.65179688 119.761875 43.27734375 120.21875 C58.79445953 132.1943123 68.92955621 152.66586762 71.71539307 171.78186035 C72.47103493 178.06825554 72.63101064 184.30135782 72.67578125 190.62890625 C72.683853 191.72919662 72.69192474 192.829487 72.70024109 193.96311951 C72.71399846 196.27674826 72.72475746 198.5903966 72.73266602 200.90405273 C72.74423109 203.26153544 72.76475336 205.61899106 72.79418945 207.97631836 C72.83689271 211.40235992 72.85303323 214.82763156 72.86328125 218.25390625 C72.88954338 219.82296471 72.88954338 219.82296471 72.91633606 221.42372131 C72.89859531 227.43563773 72.60529193 233.19840317 68.4375 237.875 C62.99591697 241.58153423 59.18038839 242.45628383 52.67041016 242.38293457 C51.38252814 242.39229451 51.38252814 242.39229451 50.06862831 242.40184355 C47.20432336 242.41774214 44.3408731 242.40518162 41.4765625 242.39257812 C39.41794337 242.39800063 37.35932813 242.40512401 35.30072021 242.41381836 C29.71810118 242.43203921 24.13577814 242.42498916 18.55315399 242.41230202 C12.70811674 242.40216802 6.86310466 242.41156882 1.01806641 242.41784668 C-8.79724676 242.4251219 -18.6124395 242.4155386 -28.42773438 242.39648438 C-39.77211089 242.37471596 -51.11619984 242.38176741 -62.46056938 242.40379 C-72.20428871 242.42194749 -81.94792152 242.42450058 -91.6916523 242.41403532 C-97.50955035 242.40780235 -103.32731329 242.40695947 -109.14520264 242.42018127 C-114.61510414 242.43174413 -120.08463523 242.42370572 -125.55449677 242.40060425 C-127.56080256 242.39531954 -129.56713959 242.39682684 -131.57343292 242.40565491 C-134.31451146 242.41660327 -137.05440679 242.40285537 -139.79541016 242.38293457 C-140.98331178 242.3963189 -140.98331178 242.3963189 -142.19521141 242.40997362 C-147.74185149 242.33190814 -150.96781691 241.00419305 -155.5625 237.875 C-160.49143458 232.35699037 -160.13202294 225.04219008 -160.05859375 218.0625 C-160.06004898 216.93537598 -160.06150421 215.80825195 -160.06300354 214.64697266 C-160.06134877 212.26673799 -160.0498351 209.88649216 -160.02905273 207.50634766 C-160.0003113 203.91390971 -160.00841266 200.32297037 -160.02148438 196.73046875 C-159.99714599 168.97362282 -154.81957229 144.38553627 -134.7265625 123.91796875 C-126.67331503 116.02480112 -117.97005432 110.73112778 -107.71484375 106.28515625 C-104.49285504 104.94888225 -104.49285504 104.94888225 -101.5625 102.875 C-102.00980469 102.23175781 -102.45710938 101.58851563 -102.91796875 100.92578125 C-114.49046972 83.6287169 -118.71883942 63.41682996 -114.9453125 42.828125 C-110.1371355 24.36132128 -99.47710399 7.59961848 -83.5625 -3.125 C-56.71852256 -18.37382858 -25.39564313 -18.65300144 0 0 Z M-70.5625 26.875 C-71.46935547 27.62716797 -71.46935547 27.62716797 -72.39453125 28.39453125 C-79.43353472 34.69742979 -84.15293964 43.91287544 -84.80078125 53.34375 C-85.1671072 66.54955417 -82.86136295 76.96512347 -73.5625 86.875 C-72.96566406 87.51308594 -72.36882812 88.15117187 -71.75390625 88.80859375 C-63.6317276 96.66059598 -52.61852162 100.30226035 -41.44140625 100.15234375 C-32.10775077 99.25317205 -23.80460454 95.75120663 -16.5625 89.875 C-15.93730469 89.37355469 -15.31210937 88.87210937 -14.66796875 88.35546875 C-7.56785943 81.99785452 -2.93133106 72.63722947 -2.32421875 63.15234375 C-1.95770822 48.9795125 -4.83334659 38.69826236 -14.5625 27.875 C-23.81489875 19.47930484 -34.72046256 16.0822173 -47.1015625 16.4921875 C-56.29953071 17.50956999 -63.69989421 20.72693885 -70.5625 26.875 Z M-115.89453125 149.63671875 C-131.03400015 167.33421739 -128.5625 188.0666214 -128.5625 210.875 C-72.4625 210.875 -16.3625 210.875 41.4375 210.875 C42.48603043 175.2404133 42.48603043 175.2404133 26 146.5625 C12.29548922 133.04747281 -4.1855542 130.5561233 -22.64453125 130.57421875 C-24.30686041 130.57032353 -25.96918858 130.56598718 -27.6315155 130.56123352 C-31.10536941 130.5538013 -34.57912163 130.55404033 -38.05297852 130.55932617 C-42.47405701 130.5651112 -46.89471524 130.54819864 -51.31572437 130.5249815 C-54.74670285 130.51014804 -58.1775824 130.50938553 -61.60858727 130.51249123 C-63.23704547 130.51198265 -64.86550991 130.50683337 -66.49393654 130.49667931 C-86.07813026 130.38954576 -102.32888907 134.7937995 -115.89453125 149.63671875 Z " fill="#000000" transform="translate(299.5625,182.125)"/>
<path d="M0 0 C0.96513519 -0.00700928 1.93027039 -0.01401855 2.9246521 -0.02124023 C6.09980446 -0.03877676 9.27405807 -0.02721254 12.44921875 -0.01367188 C14.66447113 -0.01636803 16.87972236 -0.02025147 19.0949707 -0.02526855 C23.73172299 -0.03115774 28.36816649 -0.02261904 33.00488281 -0.00390625 C38.9399524 0.01888259 44.87429838 0.00575646 50.80934143 -0.01819611 C55.38193181 -0.03266954 59.95435142 -0.02804092 64.52694702 -0.01768494 C66.71495652 -0.01502194 68.90298167 -0.01827233 71.0909729 -0.02760315 C74.15221051 -0.03779388 77.21228614 -0.02223156 80.2734375 0 C81.17234711 -0.00809692 82.07125671 -0.01619385 82.99740601 -0.02453613 C88.87207637 0.0542609 92.32721713 1.0847891 97.13671875 4.51757812 C100.68444325 8.75556167 101.81221298 12.7983558 101.51171875 18.31054688 C100.8736573 22.06580435 99.64324702 24.66028382 97.13671875 27.51757812 C91.49696686 31.50914132 86.09923895 32.09752146 79.359375 32.03515625 C78.41520721 32.04216553 77.47103943 32.0491748 76.4982605 32.05639648 C73.39827473 32.0739043 70.29921272 32.06237915 67.19921875 32.04882812 C65.03263169 32.0515251 62.86604582 32.05540924 60.69946289 32.0604248 C56.16703729 32.0663101 51.63492781 32.05778791 47.10253906 32.0390625 C41.30547418 32.01627386 35.50915016 32.02940209 29.71211243 32.05335236 C25.24070701 32.06783636 20.76947598 32.06319235 16.29806519 32.05284119 C14.16112174 32.05018111 12.02416224 32.05341824 9.88723755 32.0627594 C6.8957552 32.07296768 3.9054571 32.05736365 0.9140625 32.03515625 C0.03902069 32.04325317 -0.83602112 32.0513501 -1.73757935 32.05969238 C-7.51186632 31.98065346 -12.08401345 30.88245467 -16.86328125 27.51757812 C-20.77574455 23.14321773 -21.51405772 18.66029412 -21.2421875 12.88085938 C-20.65483168 9.21745449 -19.37432539 7.22177951 -16.86328125 4.51757812 C-11.14655139 0.50345454 -6.89007834 -0.06206235 0 0 Z " fill="#000000" transform="translate(215.86328125,77.482421875)"/>
</svg>
