<?xml version="1.0" encoding="UTF-8"?>
<svg version="1.1" xmlns="http://www.w3.org/2000/svg" width="512" height="512">
<path d="M0 0 C0.95358398 0.53367187 1.90716797 1.06734375 2.88964844 1.6171875 C6.70086645 3.75700179 10.50637739 5.90637059 14.30297852 8.07202148 C21.15170647 11.97786862 28.0564676 15.76558299 35 19.5 C42.886209 23.7437714 50.71650889 28.07064696 58.5 32.5 C67.39837779 37.56285695 76.36658445 42.48129942 85.37768555 47.34033203 C93.43913285 51.68853632 101.454004 56.1140725 109.45117188 60.57910156 C113.49886679 62.83557516 117.55189703 65.0824203 121.60449219 67.33007812 C123.91093677 68.61064013 126.21627596 69.89319507 128.52050781 71.17773438 C134.30878596 74.4040943 140.10776009 77.6066464 145.9375 80.7578125 C147.05116943 81.36592773 148.16483887 81.97404297 149.31225586 82.60058594 C151.40354147 83.74228682 153.5003314 84.87399226 155.60375977 85.99316406 C167.28956731 92.4110619 175.53133314 99.91539633 180.3125 112.4375 C182.49784413 123.76155593 180.23389218 133.24551867 173.890625 142.796875 C169.16115539 148.30807513 163.61850422 152.0618084 157.25 155.4375 C155.68195351 156.28843966 154.11427049 157.14004932 152.546875 157.9921875 C151.68126953 158.45979492 150.81566406 158.92740234 149.92382812 159.40917969 C144.708504 162.24677588 139.52746973 165.14643447 134.34118652 168.03665161 C131.38475596 169.68387719 128.42699492 171.32869055 125.46875 172.97265625 C123.95958008 173.81195679 123.95958008 173.81195679 122.41992188 174.66821289 C120.960564 175.47136031 119.48990501 176.2550475 118 177 C117.99413376 178.1796936 117.98826752 179.35938721 117.98222351 180.5748291 C117.92472755 191.7542451 117.85182831 202.93347158 117.76428509 214.11269379 C117.71977371 219.8584805 117.68047636 225.60419943 117.65356445 231.35009766 C117.62733817 236.90697771 117.58680262 242.46359418 117.53681374 248.02030945 C117.5202746 250.12827751 117.50868046 252.23629103 117.50238609 254.34431458 C117.41279959 281.61799512 112.34972493 305.11460603 92.72265625 325.34765625 C78.96029412 338.35163862 61.10930131 347.09289147 42 347 C42.0314209 348.40693115 42.0314209 348.40693115 42.06347656 349.84228516 C42.13189373 353.34238625 42.18191586 356.84177066 42.21972656 360.34228516 C42.23976791 361.85346736 42.26700905 363.36457272 42.30175781 364.87548828 C42.35061109 367.05520643 42.37304224 369.23389431 42.390625 371.4140625 C42.41157227 372.7232666 42.43251953 374.0324707 42.45410156 375.38134766 C41.77764871 380.77187676 39.38117239 383.78325289 35.375 387.3125 C30.69068224 390.64083104 26.6276406 390.47618497 21 390 C15.47205853 388.05498356 12.48173492 385.00270582 9.90283203 379.77661133 C8.79687537 376.37530114 8.77425991 373.52446024 8.8046875 369.94921875 C8.80893234 368.96100883 8.80893234 368.96100883 8.81326294 367.95283508 C8.82439076 365.86419938 8.84948052 363.77600444 8.875 361.6875 C8.88503941 360.26498018 8.89416358 358.8424536 8.90234375 357.41992188 C8.92430553 353.94647319 8.95878354 350.47327967 9 347 C8.21076645 347.00368717 7.4215329 347.00737434 6.60838318 347.01117325 C-12.65791398 347.09978181 -31.9241701 347.16583431 -51.19062805 347.20724869 C-60.50801952 347.22781232 -69.82527438 347.25581332 -79.14257812 347.30175781 C-87.27020078 347.34181653 -95.39772443 347.36747778 -103.52544308 347.37635398 C-107.82300524 347.38153674 -112.12028433 347.39358631 -116.41775513 347.42292023 C-120.47582446 347.45039144 -124.53349842 347.4583822 -128.59165192 347.45243073 C-130.06850597 347.45351699 -131.54537546 347.46128006 -133.02214813 347.4768219 C-156.46671396 347.71112273 -175.6637063 339.30638754 -192.71875 323.4765625 C-208.52325735 307.23304106 -215.05931799 286.46713932 -215.20532227 264.1875 C-215.21522186 263.24023544 -215.22512146 262.29297089 -215.23532104 261.31700134 C-215.26670293 258.21135894 -215.29160052 255.10570129 -215.31640625 252 C-215.33699595 249.83666607 -215.35799293 247.67333597 -215.37937927 245.51000977 C-215.43439182 239.83509444 -215.48389235 234.16014407 -215.53222656 228.48516846 C-215.5825942 222.68669542 -215.63820036 216.88827284 -215.69335938 211.08984375 C-215.80068609 199.72660568 -215.90218696 188.36332367 -216 177 C-217.09059975 176.41392471 -217.09059975 176.41392471 -218.20323181 175.81600952 C-220.96016971 174.33407937 -223.71680488 172.8515879 -226.47325134 171.3687439 C-228.22913497 170.42436593 -229.9853514 169.48060683 -231.74157715 168.53686523 C-239.03983184 164.61012206 -246.31460265 160.64393471 -253.5625 156.625 C-254.4283371 156.14643051 -255.29417419 155.66786102 -256.18624878 155.17478943 C-264.14383291 150.72616855 -271.64410833 145.29770347 -275.5 136.8125 C-275.9640625 135.82894531 -276.428125 134.84539062 -276.90625 133.83203125 C-280.42918133 124.71015548 -279.88115293 114.91932881 -276 106 C-269.72198602 95.1846052 -259.54560864 89.29023577 -248.8125 83.5625 C-247.52822016 82.86705237 -246.24454038 82.17049558 -244.96142578 81.47290039 C-242.30064251 80.02743216 -239.6373705 78.58671654 -236.97216797 77.14941406 C-231.35329727 74.1147685 -225.76528577 71.02446449 -220.17709351 67.93380737 C-218.36516886 66.93206475 -216.55245959 65.93175653 -214.73950195 64.93188477 C-206.65090646 60.47031632 -198.57306338 55.98962382 -190.5 51.5 C-177.5688877 44.30869887 -164.61540943 37.1584647 -151.65722656 30.01611328 C-147.41397184 27.67715884 -143.17155345 25.33668955 -138.92939758 22.9957428 C-135.92130336 21.33579277 -132.91297842 19.67626473 -129.90405273 18.01782227 C-123.69476612 14.59479112 -117.49032778 11.16333362 -111.29296875 7.71875 C-104.21079264 3.78395782 -97.11371109 -0.12246754 -90 -4 C-89.15034668 -4.46470703 -88.30069336 -4.92941406 -87.42529297 -5.40820312 C-55.86786415 -22.51904101 -29.95383967 -16.78591604 0 0 Z M-79.375 27.75 C-80.5510572 28.41444573 -81.72766658 29.07791491 -82.90478516 29.74047852 C-85.36520528 31.12577426 -87.82373862 32.51433678 -90.28125 33.90478516 C-95.68907911 36.95836213 -101.1302489 39.95133961 -106.57141113 42.94497681 C-108.99571596 44.27908283 -111.41876047 45.61546965 -113.84185791 46.95176697 C-117.50528376 48.97197838 -121.16933738 50.9910511 -124.83325195 53.01037598 C-129.09743912 55.36059236 -133.36139693 57.71122414 -137.625 60.0625 C-138.22616638 60.39402069 -138.82733276 60.72554138 -139.44671631 61.06710815 C-148.14010897 65.86199873 -156.82341433 70.67474299 -165.5 75.5 C-174.17819621 80.32615267 -182.86316441 85.13968722 -191.55822754 89.93536377 C-193.36552739 90.93227489 -195.17252916 91.92972462 -196.97949219 92.92724609 C-202.6341099 96.04776583 -208.29188649 99.16225331 -213.95877075 102.26045227 C-216.5909525 103.70003386 -219.22147777 105.1426273 -221.85186768 106.58547974 C-223.09611928 107.26689943 -224.34116915 107.94686399 -225.58709717 108.62521362 C-232.61650848 112.45278611 -239.44210226 116.40435821 -246 121 C-243.04990807 124.22971734 -240.16253763 126.19589782 -236.29296875 128.21484375 C-235.16084961 128.81184082 -234.02873047 129.40883789 -232.86230469 130.02392578 C-232.26365601 130.33557678 -231.66500732 130.64722778 -231.04821777 130.96832275 C-227.86618344 132.62572363 -224.69721707 134.30777115 -221.52734375 135.98828125 C-220.56618149 136.49690704 -220.56618149 136.49690704 -219.58560181 137.01580811 C-213.74700166 140.11415932 -207.98915969 143.3462715 -202.25 146.625 C-194.55144675 151.01622528 -186.80486245 155.30057627 -179 159.5 C-170.14885818 164.26324784 -161.38023206 169.15365727 -152.64453125 174.125 C-144.81329949 178.56946441 -136.90519775 182.8604761 -128.97607422 187.12719727 C-122.14320027 190.81362958 -115.3709768 194.59463388 -108.625 198.4375 C-97.12127253 204.98820592 -85.46994843 211.25197852 -73.79418945 217.48950195 C-70.47824433 219.2820535 -67.19665599 221.13108137 -63.92700195 223.0065918 C-55.38311785 227.41113562 -45.79736607 226.88151408 -36.85888672 224.08129883 C-31.30586627 221.98101467 -26.18402491 219.05916113 -21 216.1875 C-19.88882813 215.58357422 -18.77765625 214.97964844 -17.6328125 214.35742188 C-10.99097234 210.72785158 -4.45443438 206.95297681 2 203 C-1.80927818 198.44484015 -5.74818789 194.11502738 -9.97363281 189.94458008 C-10.53700348 189.38427597 -11.10037415 188.82397186 -11.68081665 188.24668884 C-12.89098416 187.04361607 -14.10228002 185.84167739 -15.31461334 184.64078712 C-17.23390916 182.73902838 -19.14951374 180.833621 -21.06414795 178.9271698 C-26.50366141 173.51199257 -31.94889797 168.10259666 -37.3984375 162.69750977 C-40.74230377 159.38041424 -44.08129189 156.05847287 -47.41732025 152.73349571 C-48.68649775 151.47052214 -49.9575691 150.20944874 -51.23056793 148.95032692 C-53.00626915 147.19383004 -54.77573525 145.43126952 -56.54394531 143.66723633 C-57.33253433 142.8917897 -57.33253433 142.8917897 -58.13705444 142.10067749 C-62.69804143 137.52735218 -64.2929596 134.57337579 -64.375 128.125 C-64.2739641 122.94059522 -63.74192242 119.84039406 -60 116 C-55.73450677 112.95321912 -51.83642259 112.60738307 -46.7578125 112.40625 C-39.45893612 113.97767948 -33.92143707 119.64787815 -28.84960938 124.80981445 C-27.85299286 125.80577385 -27.85299286 125.80577385 -26.83624268 126.82185364 C-24.66488133 128.99528743 -22.50431149 131.17911588 -20.34375 133.36328125 C-18.83126502 134.88136765 -17.31811172 136.39878847 -15.80432129 137.91557312 C-11.8390152 141.89228482 -7.88280496 145.87792547 -3.9284668 149.86553955 C0.11511553 153.93991522 4.16729822 158.00571773 8.21875 162.07226562 C16.15423962 170.03984377 24.08013959 178.01688818 32 186 C34.53301347 184.74098543 37.06518931 183.48033181 39.59692383 182.21875 C40.66055523 181.69039551 40.66055523 181.69039551 41.74567413 181.15136719 C48.16629145 177.94918618 54.43533477 174.52065081 60.6875 171 C62.43602285 170.02214433 64.18455385 169.044303 65.93347168 168.06715393 C67.13820751 167.39392579 68.34271553 166.72028984 69.54699707 166.04624939 C75.5412222 162.69216252 81.5539532 159.37197246 87.56994629 156.05712891 C89.37597501 155.06196275 91.18168211 154.06621534 92.98730469 153.0703125 C98.60015039 149.97483003 104.21426354 146.88165917 109.82983398 143.79112244 C112.41261785 142.36946664 114.99493969 140.94697284 117.57720947 139.52438354 C119.36205035 138.54154694 121.14756324 137.55993101 122.93310547 136.57836914 C131.00253029 132.13277324 139.0128918 127.59121091 147 123 C147 122.01 147 121.02 147 120 C144.73641586 118.39531431 142.53774672 117.03827715 140.125 115.6875 C139.37686035 115.25800049 138.6287207 114.82850098 137.85791016 114.38598633 C129.98776498 109.9082539 121.9924039 105.65484572 114.00683594 101.38769531 C106.73992208 97.49927735 99.53586236 93.51767006 92.375 89.4375 C84.63384781 85.02743357 76.84547779 80.72171076 69 76.5 C61.11389142 72.2560368 53.28349585 67.92935574 45.5 63.5 C36.60162221 58.43714305 27.63341555 53.51870058 18.62231445 48.65966797 C12.79171817 45.51474587 6.97544628 42.34775748 1.1875 39.125 C0.49897949 38.74255127 -0.18954102 38.36010254 -0.89892578 37.96606445 C-4.95872947 35.70701696 -9.00871233 33.43128087 -13.05213928 31.14303589 C-15.48808041 29.7662646 -17.92736078 28.39547267 -20.36703491 27.02532959 C-21.56748066 26.34920976 -22.76643463 25.67043347 -23.96377563 24.98883057 C-25.65301917 24.02747535 -27.34792307 23.07608764 -29.04296875 22.125 C-30.02289795 21.57070312 -31.00282715 21.01640625 -32.01245117 20.4453125 C-37.49422932 17.79334497 -42.68720838 16.69484783 -48.75 16.625 C-49.85859375 16.59664062 -50.9671875 16.56828125 -52.109375 16.5390625 C-62.15267984 17.72893195 -70.72921104 22.8022946 -79.375 27.75 Z M-182 196 C-182.06983608 205.70188431 -182.12298062 215.40368068 -182.15543652 225.10576248 C-182.17102202 229.61194047 -182.19212851 234.11794515 -182.22631836 238.62402344 C-182.25916789 242.98124622 -182.27690637 247.3383034 -182.28463173 251.69564056 C-182.2901297 253.34923658 -182.30086442 255.00282462 -182.31719017 256.65634918 C-182.47518386 273.33796564 -180.18716496 288.26782765 -168.29296875 300.8984375 C-154.35771017 313.67044622 -138.81357171 315.16291804 -120.75952148 315.11352539 C-119.33949282 315.11324284 -117.91946401 315.11340258 -116.49943542 315.1139679 C-112.66949902 315.11425322 -108.83959433 315.10839949 -105.00966525 315.10139394 C-100.99782395 315.09511612 -96.98598181 315.09455311 -92.97413635 315.09336853 C-85.38832892 315.09026822 -77.802536 315.08207245 -70.21673495 315.07201904 C-59.95812991 315.05872032 -49.69952087 315.05334749 -39.44090939 315.04751682 C-23.29392873 315.03813162 -7.1469787 315.01820403 9 315 C9 289.26 9 263.52 9 237 C-2.55387857 242.72559364 -2.55387857 242.72559364 -13.89282227 248.75195312 C-23.22306706 253.90654849 -32.22966685 257.34785139 -43 258 C-43.85722656 258.05285156 -44.71445312 258.10570312 -45.59765625 258.16015625 C-68.39071707 258.86572879 -86.19208249 248.37680243 -105.38818359 237.4765625 C-110.51285726 234.579383 -115.66508694 231.73151315 -120.8125 228.875 C-121.94727783 228.24432617 -123.08205566 227.61365234 -124.2512207 226.96386719 C-130.36775094 223.56494479 -136.48917595 220.17505643 -142.6171875 216.796875 C-143.56176315 216.27614914 -143.56176315 216.27614914 -144.52542114 215.74490356 C-147.64157942 214.02737503 -150.75828034 212.3108375 -153.87548828 210.59521484 C-159.03586907 207.75321906 -164.19118937 204.90418854 -169.3125 201.9921875 C-170.06893799 201.56212402 -170.82537598 201.13206055 -171.60473633 200.68896484 C-172.9428268 199.92510356 -174.27879654 199.15750856 -175.61206055 198.38525391 C-178.61264063 196.55984879 -178.61264063 196.55984879 -182 196 Z M75.84765625 199.2890625 C74.92550575 199.80042252 74.92550575 199.80042252 73.98472595 200.32211304 C72.00842516 201.4191266 70.03541075 202.52190335 68.0625 203.625 C66.12101336 204.70535708 64.17886945 205.7845256 62.23667908 206.86361694 C60.44980557 207.85725943 58.66443169 208.85359729 56.87915039 209.85009766 C51.9329993 212.59135302 46.96448911 215.29209685 42 218 C42 249.68 42 281.36 42 314 C54.83124402 312.3960945 65.58768749 306.70799627 73.89453125 296.72265625 C81.26338764 286.90268552 84.17709323 276.52594298 84.11352539 264.34228516 C84.11367142 263.60013763 84.11381744 262.85799011 84.1139679 262.09335327 C84.11327539 259.65855917 84.10551419 257.22384311 84.09765625 254.7890625 C84.09578972 253.09369956 84.09436692 251.39833608 84.09336853 249.70297241 C84.08956189 245.25439956 84.07974751 240.80585968 84.06866455 236.3572998 C84.05841051 231.81242316 84.05386237 227.26754115 84.04882812 222.72265625 C84.0381235 213.81508973 84.02106944 204.90754761 84 196 C80.81169887 196 78.60866403 197.75061587 75.84765625 199.2890625 Z " fill="#000000" transform="translate(305,69)"/>
</svg>
