<?xml version="1.0" encoding="UTF-8"?>
<svg version="1.1" xmlns="http://www.w3.org/2000/svg" width="512" height="512">
<path d="M0 0 C1.2962027 -0.00524185 2.5924054 -0.0104837 3.92788696 -0.0158844 C6.64896525 -0.02472666 9.36974869 -0.02249623 12.09082031 -0.01245117 C14.84471012 -0.00326097 17.59775216 -0.01019348 20.3515625 -0.03295898 C45.39659177 -0.23900352 65.92168972 1.17578746 84.8515625 19.43359375 C101.37568858 38.21567495 102.36725197 58.39176623 102.24267578 82.31518555 C102.22657866 85.99240121 102.24260377 89.6685205 102.26171875 93.34570312 C102.29216343 123.60630671 102.29216343 123.60630671 95.2265625 136.74609375 C94.88246338 137.40851074 94.53836426 138.07092773 94.18383789 138.75341797 C90.91409961 144.78725732 86.81055144 149.69338373 81.8515625 154.43359375 C81.078125 155.2534375 81.078125 155.2534375 80.2890625 156.08984375 C76.52024695 159.78014231 71.98268945 162.18260701 67.3515625 164.62109375 C66.74175537 164.95447754 66.13194824 165.28786133 65.50366211 165.63134766 C51.40388662 172.70705264 35.4430751 171.90446266 20.1003418 171.82470703 C16.42523997 171.80864261 12.75124012 171.82461285 9.07617188 171.84375 C-14.38780136 171.86656745 -34.58802497 169.8316604 -52.1484375 152.43359375 C-65.13134564 137.62781239 -69.64344809 121.76621143 -69.546875 102.3125 C-69.54974518 101.01013901 -69.55261536 99.70777802 -69.55557251 98.36595154 C-69.55995317 95.63049432 -69.55370582 92.89533429 -69.53955078 90.15991211 C-69.52247815 86.69640393 -69.53231466 83.23359461 -69.55026817 79.77011204 C-69.56386983 76.40918912 -69.5542765 73.04844259 -69.546875 69.6875 C-69.55294769 68.46623917 -69.55902039 67.24497833 -69.5652771 65.98670959 C-69.41106328 46.7721443 -63.62195226 30.64069544 -50.015625 17.02734375 C-45.73242804 13.15262607 -41.20105653 10.20087433 -36.1484375 7.43359375 C-35.49617188 7.0365625 -34.84390625 6.63953125 -34.171875 6.23046875 C-23.93456821 0.39302573 -11.48774769 -0.02782843 0 0 Z M-21.1484375 50.43359375 C-26.59869632 57.37480483 -26.30542083 65.55036946 -26.31640625 73.953125 C-26.31973465 74.85173752 -26.32306305 75.75035004 -26.32649231 76.67619324 C-26.33153352 78.56968681 -26.33390151 80.46318918 -26.33374023 82.35668945 C-26.33592289 85.226877 -26.35409813 88.09667735 -26.37304688 90.96679688 C-26.3759823 92.81640495 -26.3779661 94.66601483 -26.37890625 96.515625 C-26.38609177 97.3607515 -26.39327728 98.20587799 -26.40068054 99.07661438 C-26.37276894 106.49329002 -26.27761025 115.23750067 -20.8984375 120.87109375 C-20.33640625 121.48855469 -19.774375 122.10601562 -19.1953125 122.7421875 C-13.63214028 127.3392363 -8.59007662 127.93807254 -1.6484375 128.12109375 C-0.75769531 128.15380371 0.13304687 128.18651367 1.05078125 128.22021484 C3.65091587 128.3088558 6.25057752 128.37585188 8.8515625 128.43359375 C10.07875 128.46324219 11.3059375 128.49289063 12.5703125 128.5234375 C16.00188138 128.56020431 19.42067251 128.51304594 22.8515625 128.43359375 C23.6465918 128.42102539 24.44162109 128.40845703 25.26074219 128.39550781 C27.91705752 128.34688643 30.57117746 128.2685156 33.2265625 128.18359375 C34.05929688 128.1695752 34.89203125 128.15555664 35.75 128.14111328 C42.09663905 127.88556952 47.61019819 126.42590115 52.37988281 122.02270508 C56.45820308 117.39947508 58.09196726 113.1153094 58.14208984 107.02001953 C58.15484955 105.96187042 58.16760925 104.90372131 58.18075562 103.81350708 C58.18298126 102.68008881 58.18520691 101.54667053 58.1875 100.37890625 C58.1941568 99.20399628 58.2008136 98.0290863 58.20767212 96.818573 C58.21778784 94.33560754 58.22248947 91.85261495 58.22216797 89.36962891 C58.22653863 85.57929495 58.2628652 81.79012786 58.30078125 78 C58.30665014 75.58463939 58.31061905 73.16927326 58.3125 70.75390625 C58.32687103 69.62453644 58.34124207 68.49516663 58.35604858 67.33157349 C58.31187626 59.69019438 57.1894195 55.43739789 52.24609375 49.5078125 C51.72402344 49.05019531 51.20195312 48.59257813 50.6640625 48.12109375 C50.15488281 47.65058594 49.64570313 47.18007812 49.12109375 46.6953125 C42.69335157 43.12188612 35.05714861 43.1344251 27.8828125 43.16796875 C26.96246216 43.1660553 26.04211182 43.16414185 25.09387207 43.16217041 C23.16104863 43.16081821 21.2282158 43.16444665 19.29541016 43.17285156 C16.35949035 43.18356482 13.42418233 43.17292317 10.48828125 43.16015625 C8.598957 43.16147802 6.70963313 43.16404076 4.8203125 43.16796875 C3.95442505 43.16392029 3.0885376 43.15987183 2.19641113 43.15570068 C-6.49483697 43.22162325 -14.70605309 44.09161013 -21.1484375 50.43359375 Z " fill="#000000" transform="translate(133.1484375,63.56640625)"/>
<path d="M0 0 C3.67721566 0.01609712 7.35333495 0.00007201 11.03051758 -0.01904297 C41.29112116 -0.04948765 41.29112116 -0.04948765 54.4309082 7.01611328 C55.0933252 7.3602124 55.75574219 7.70431152 56.43823242 8.05883789 C62.47207177 11.32857617 67.37819819 15.43212434 72.1184082 20.39111328 C72.93825195 21.16455078 72.93825195 21.16455078 73.7746582 21.95361328 C77.46495676 25.72242883 79.86742147 30.25998633 82.3059082 34.89111328 C82.63929199 35.50092041 82.97267578 36.11072754 83.31616211 36.73901367 C90.3918671 50.83878916 89.58927711 66.79960068 89.50952148 82.14233398 C89.49345706 85.81743581 89.50942731 89.49143566 89.52856445 93.16650391 C89.55069839 116.0270882 87.66200292 134.73930111 71.9152832 152.63330078 C57.38647488 166.95919279 40.25994443 171.69111641 20.3605957 171.72705078 C19.05873322 171.73370758 17.75687073 171.74036438 16.41555786 171.7472229 C13.67064091 171.75912297 10.92584908 171.76291154 8.1809082 171.76171875 C5.39971802 171.76155661 2.61918933 171.77538967 -0.16186523 171.80273438 C-24.29928027 172.03649435 -45.24408424 171.11041399 -63.76953125 153.72094727 C-76.91979144 140.68567169 -82.01329016 124.3454028 -82.21078491 106.25483704 C-82.21301056 105.02750351 -82.21523621 103.80016998 -82.2175293 102.53564453 C-82.2241861 101.23519699 -82.2308429 99.93474945 -82.23770142 98.59489441 C-82.24958866 95.85595376 -82.25339129 93.11713839 -82.25219727 90.37817383 C-82.25203499 87.6038193 -82.26589116 84.83012702 -82.29321289 82.0559082 C-82.53699091 56.92943332 -81.20689219 36.39096461 -62.8815918 17.39111328 C-44.0995106 0.8669872 -23.92341931 -0.12457619 0 0 Z M-7.35961914 43.42919922 C-9.90981827 43.47677575 -12.45744384 43.55451697 -15.0065918 43.64111328 C-16.17919556 43.66214111 -16.17919556 43.66214111 -17.37548828 43.68359375 C-23.7880949 43.96159093 -27.78697839 45.86771655 -32.80737305 49.96142578 C-39.16206759 57.08584389 -39.19140315 66.08323677 -39.1472168 75.23876953 C-39.14913025 76.13550888 -39.1510437 77.03224823 -39.15301514 77.9561615 C-39.15436536 79.83593021 -39.15075102 81.71570863 -39.14233398 83.59545898 C-39.13160506 86.45008525 -39.14227566 89.30408416 -39.1550293 92.15869141 C-39.15370774 93.99788548 -39.15114543 95.83707918 -39.1472168 97.67626953 C-39.15126526 98.51714615 -39.15531372 99.35802277 -39.15948486 100.22438049 C-39.09216308 108.85183969 -38.17085999 117.00227884 -31.8815918 123.39111328 C-24.87224635 128.8948714 -16.58917036 128.54831079 -8.1081543 128.55908203 C-7.18497406 128.56241043 -6.26179382 128.56573883 -5.31063843 128.56916809 C-3.36587011 128.57420976 -1.42109321 128.57657727 0.52368164 128.57641602 C3.47727902 128.57860135 6.4305018 128.59678346 9.3840332 128.61572266 C11.28246944 128.6186575 13.18090743 128.62064169 15.0793457 128.62158203 C15.95150726 128.62876755 16.82366882 128.63595306 17.72225952 128.64335632 C25.03487064 128.61649661 32.9075965 128.3733926 38.4934082 123.14111328 C39.11989258 122.57908203 39.74637695 122.01705078 40.3918457 121.43798828 C45.70386885 115.14047667 45.57256746 109.15591297 45.55200195 101.27392578 C45.5572438 100.10280243 45.56248566 98.93167908 45.56788635 97.72506714 C45.57429855 95.25226635 45.57298 92.77943503 45.56445312 90.30664062 C45.55595318 86.53606433 45.58470256 82.76700844 45.61645508 78.99658203 C45.61806755 76.5890304 45.61748868 74.1814761 45.61450195 71.77392578 C45.62573593 70.65285431 45.63696991 69.53178284 45.64854431 68.3767395 C45.5849354 61.18145479 44.75364507 55.29841637 39.70652771 49.87356567 C34.22376786 44.99516353 28.99636163 44.05823625 21.8684082 43.76611328 C21.0755542 43.7288916 20.2827002 43.69166992 19.46582031 43.65332031 C10.51305896 43.26781595 1.59705298 43.29154002 -7.35961914 43.42919922 Z " fill="#000000" transform="translate(145.881591796875,276.60888671875)"/>
<path d="M0 0 C1.30236099 -0.00287018 2.60472198 -0.00574036 3.94654846 -0.00869751 C6.68200568 -0.01307817 9.41716571 -0.00683082 12.15258789 0.00732422 C15.61609607 0.02439685 19.07890539 0.01456034 22.54238796 -0.00339317 C25.90331088 -0.01699483 29.26405741 -0.0074015 32.625 0 C33.84626083 -0.00607269 35.06752167 -0.01214539 36.32579041 -0.0184021 C55.5403557 0.13581172 71.67180456 5.92492274 85.28515625 19.53125 C89.15987393 23.81444696 92.11162567 28.34581847 94.87890625 33.3984375 C95.47445312 34.37683594 95.47445312 34.37683594 96.08203125 35.375 C101.91947427 45.61230679 102.34032843 58.05912731 102.3125 69.546875 C102.31774185 70.8430777 102.3229837 72.1392804 102.3283844 73.47476196 C102.33722666 76.19584025 102.33499623 78.91662369 102.32495117 81.63769531 C102.31576097 84.39158512 102.32269348 87.14462716 102.34545898 89.8984375 C102.55150352 114.94346677 101.13671254 135.46856472 82.87890625 154.3984375 C64.24373092 170.79331853 44.22676882 171.91590055 20.47949219 171.78955078 C16.8856816 171.77346782 13.29299534 171.7894727 9.69921875 171.80859375 C-21.53736991 171.84070545 -21.53736991 171.84070545 -34.49609375 164.7734375 C-35.15399902 164.42933838 -35.8119043 164.08523926 -36.48974609 163.73071289 C-42.49422508 160.45453837 -47.39726465 156.34028948 -52.12109375 151.3984375 C-52.66765625 150.8828125 -53.21421875 150.3671875 -53.77734375 149.8359375 C-57.46764231 146.06712195 -59.87010701 141.52956445 -62.30859375 136.8984375 C-62.80866943 135.98372681 -62.80866943 135.98372681 -63.31884766 135.05053711 C-70.39455264 120.95076162 -69.59196266 104.9899501 -69.51220703 89.6472168 C-69.49614261 85.97211497 -69.51211285 82.29811512 -69.53125 78.62304688 C-69.55406745 55.15907364 -67.5191604 34.95885003 -50.12109375 17.3984375 C-35.31531239 4.41552936 -19.45371143 -0.09657309 0 0 Z M-18.49609375 48.6484375 C-19.12257813 49.21046875 -19.7490625 49.7725 -20.39453125 50.3515625 C-25.91381197 56.89478218 -25.69781044 63.49044158 -25.87109375 71.7109375 C-25.90420654 72.98735107 -25.93731934 74.26376465 -25.97143555 75.57885742 C-26.15182259 84.12581792 -26.1683076 92.66516099 -25.93359375 101.2109375 C-25.91586914 102.22260986 -25.89814453 103.23428223 -25.87988281 104.27661133 C-25.61255757 111.04142511 -24.43480119 116.82263863 -19.71044922 121.9206543 C-13.79034341 127.16582639 -8.24811632 127.75205812 -0.68359375 128.0234375 C0.21166016 128.06065918 1.10691406 128.09788086 2.02929688 128.13623047 C9.31775151 128.42007732 16.5855634 128.56715837 23.87890625 128.3984375 C24.67925293 128.38586914 25.47959961 128.37330078 26.30419922 128.36035156 C28.97597793 128.31180079 31.64555598 128.2334191 34.31640625 128.1484375 C35.15751953 128.13441895 35.99863281 128.12040039 36.86523438 128.10595703 C43.54709599 127.83798932 47.56918817 126.09723399 52.8046875 121.828125 C59.15938204 114.7037069 59.1887176 105.70631401 59.14453125 96.55078125 C59.1464447 95.6540419 59.14835815 94.75730255 59.15032959 93.83338928 C59.15167981 91.95362057 59.14806547 90.07384215 59.13964844 88.1940918 C59.12891951 85.33946553 59.13959011 82.48546662 59.15234375 79.63085938 C59.15102219 77.7916653 59.14845988 75.95247161 59.14453125 74.11328125 C59.14857971 73.27240463 59.15262817 72.43152802 59.15679932 71.56517029 C59.08947753 62.93771109 58.16817444 54.78727194 51.87890625 48.3984375 C44.8695608 42.89467938 36.58648482 43.24124 28.10546875 43.23046875 C27.18228851 43.22714035 26.25910828 43.22381195 25.30795288 43.22038269 C23.36318456 43.21534103 21.41840766 43.21297351 19.47363281 43.21313477 C16.52003543 43.21094943 13.56681266 43.19276733 10.61328125 43.17382812 C8.71484501 43.17089328 6.81640702 43.16890909 4.91796875 43.16796875 C4.04580719 43.16078323 3.17364563 43.15359772 2.27505493 43.14619446 C-5.03755619 43.17305417 -12.91028204 43.41615818 -18.49609375 48.6484375 Z " fill="#000000" transform="translate(346.12109375,63.6015625)"/>
<path d="M0 0 C2.13847305 0.01384833 4.27254066 -0.0202482 6.41064453 -0.05834961 C14.52333961 -0.1045721 21.53797364 0.56578596 28.27392578 5.57641602 C33.29724034 10.89465864 34.42397727 15.84423953 34.48266602 22.93432617 C34.4924498 23.68108612 34.50223358 24.42784607 34.51231384 25.19723511 C34.54223791 27.6699649 34.56364904 30.14264052 34.58251953 32.61547852 C34.58909136 33.46203381 34.59566319 34.3085891 34.60243416 35.18079758 C34.63502029 39.66502969 34.65946874 44.14923819 34.67895508 48.63354492 C34.69673917 52.33507118 34.73151291 56.03583144 34.78149414 59.73706055 C34.84188099 64.21452701 34.87245631 68.6912856 34.88212776 73.16913986 C34.89065491 74.86993014 34.90940516 76.57070292 34.93887138 78.27125931 C35.20169315 94.30736175 35.20169315 94.30736175 29.87586975 100.99057007 C24.48393967 106.32831635 19.4345836 107.72560918 11.96020508 107.73754883 C10.84746719 107.74499619 10.84746719 107.74499619 9.71224976 107.75259399 C7.25753858 107.76720132 4.80289204 107.77401552 2.34814453 107.77954102 C0.64044697 107.78529402 -1.06725059 107.79105173 -2.77494812 107.79681396 C-6.35688579 107.80732014 -9.93880104 107.81316519 -13.52075195 107.81665039 C-18.10398573 107.82213176 -22.68692192 107.84615365 -27.27006245 107.87462234 C-30.79858762 107.89327415 -34.3270415 107.89845569 -37.8556118 107.89998627 C-39.54485894 107.90300801 -41.23410496 107.91102039 -42.9233036 107.92417145 C-45.29048723 107.94128406 -47.65694902 107.93933917 -50.02416992 107.93286133 C-50.717892 107.94207611 -51.41161407 107.95129089 -52.12635803 107.96078491 C-58.0310676 107.91033368 -61.86698452 106.12565743 -66.35107422 102.38891602 C-71.4336118 96.37012151 -73.44619782 91.21026643 -73.10498047 83.25219727 C-72.13558213 76.40644611 -68.82457273 72.1385099 -63.60498047 67.80297852 C-59.76782304 65.29805662 -56.31152249 64.32530547 -51.75219727 64.34936523 C-50.79157883 64.3495163 -49.83096039 64.34966736 -48.8412323 64.349823 C-47.81709732 64.36014557 -46.79296234 64.37046814 -45.73779297 64.38110352 C-44.15028984 64.38534836 -44.15028984 64.38534836 -42.53071594 64.38967896 C-39.15821924 64.40085312 -35.78599035 64.42595294 -32.41357422 64.45141602 C-30.12386452 64.46144937 -27.83415065 64.4705746 -25.54443359 64.47875977 C-19.93812819 64.49907983 -14.33240019 64.53823445 -8.72607422 64.57641602 C-8.72607422 57.64641602 -8.72607422 50.71641602 -8.72607422 43.57641602 C-11.69607422 43.24641602 -14.66607422 42.91641602 -17.72607422 42.57641602 C-22.39922357 40.39023312 -26.76782415 36.47347282 -29.10498047 31.83032227 C-30.83971731 25.53508227 -30.8919634 18.31756558 -28.33544922 12.30688477 C-21.70076098 1.05045981 -11.98666715 -0.10822248 0 0 Z " fill="#000000" transform="translate(413.72607421875,276.423583984375)"/>
<path d="M0 0 C5.52013044 3.08039076 8.60528998 6.87836995 10.625 12.9375 C10.71222452 14.54845858 10.74267272 16.16281016 10.73852539 17.77612305 C10.73844986 18.7569133 10.73837433 19.73770355 10.73829651 20.74821472 C10.73313522 21.80454605 10.72797394 22.86087738 10.72265625 23.94921875 C10.7212413 25.03258011 10.71982635 26.11594147 10.71836853 27.23213196 C10.71276559 30.69644925 10.70021258 34.1607022 10.6875 37.625 C10.68248538 39.97200428 10.67792241 42.31900956 10.67382812 44.66601562 C10.66279521 50.42319908 10.6460542 56.18034494 10.625 61.9375 C11.78902344 61.9060791 11.78902344 61.9060791 12.9765625 61.87402344 C16.52590748 61.79037241 20.07504435 61.73868371 23.625 61.6875 C24.84574219 61.65398437 26.06648438 61.62046875 27.32421875 61.5859375 C35.63689394 61.49607074 41.17825224 62.10024855 47.6484375 67.68359375 C48.09445312 68.24175781 48.54046875 68.79992187 49 69.375 C49.69222656 70.20837891 49.69222656 70.20837891 50.3984375 71.05859375 C54.10046013 76.7295265 54.47219256 82.34528293 53.625 88.9375 C51.36772262 96.06203171 48.06083309 100.24285508 41.625 103.9375 C38.56388819 104.9578706 36.44547554 105.0760637 33.23901367 105.09863281 C31.58665962 105.11304413 31.58665962 105.11304413 29.90092468 105.12774658 C28.1149865 105.1341214 28.1149865 105.1341214 26.29296875 105.140625 C25.06846512 105.14632507 23.84396149 105.15202515 22.58235168 105.15789795 C19.98907333 105.16735113 17.39578295 105.17388319 14.80249023 105.17773438 C10.8388162 105.18743559 6.87566157 105.21845522 2.91210938 105.25 C0.39323225 105.25653049 -2.12564859 105.26178078 -4.64453125 105.265625 C-5.82908401 105.2779718 -7.01363678 105.2903186 -8.23408508 105.30303955 C-15.61300085 105.28310765 -20.19603614 104.58663655 -26 99.75 C-33.31024549 91.09313034 -32.96826967 82.78347694 -32.90625 72.03125 C-32.90894878 70.38032808 -32.9128344 68.72940772 -32.91784668 67.07849121 C-32.92372365 63.62883275 -32.91523742 60.17959033 -32.89648438 56.72998047 C-32.87369553 52.32512032 -32.88682837 47.92123527 -32.91077423 43.51641083 C-32.9252813 40.11042028 -32.92060388 36.70465799 -32.91026306 33.29866028 C-32.9076093 31.67527651 -32.91081762 30.0518715 -32.92018127 28.42851257 C-32.99734308 11.29404075 -32.99734308 11.29404075 -26.62890625 3.9140625 C-26.07074219 3.46804688 -25.51257813 3.02203125 -24.9375 2.5625 C-24.38191406 2.10101563 -23.82632812 1.63953125 -23.25390625 1.1640625 C-16.04505584 -3.54192301 -7.71848698 -3.50735432 0 0 Z " fill="#000000" transform="translate(309.375,343.0625)"/>
<path d="M0 0 C1.05492142 -0.0127597 2.10984283 -0.02551941 3.19673157 -0.03866577 C4.32701279 -0.04089142 5.45729401 -0.04311707 6.62182617 -0.04541016 C7.79436447 -0.05206696 8.96690277 -0.05872375 10.17497253 -0.06558228 C12.6537418 -0.07569873 15.13253824 -0.08039961 17.61132812 -0.08007812 C21.39067846 -0.08444479 25.16885472 -0.12075958 28.94799805 -0.15869141 C31.36010344 -0.16456113 33.77221437 -0.16852948 36.18432617 -0.17041016 C37.87063896 -0.19196671 37.87063896 -0.19196671 39.59101868 -0.21395874 C47.25162357 -0.16967213 52.65990751 0.88850577 58.62573242 6.03662109 C59.29475586 6.87386719 59.29475586 6.87386719 59.97729492 7.72802734 C60.66952148 8.56140625 60.66952148 8.56140625 61.37573242 9.41162109 C65.07775505 15.08255384 65.44948748 20.69831027 64.60229492 27.29052734 C62.34501755 34.41505906 59.03812801 38.59588242 52.60229492 42.29052734 C49.54118312 43.31089795 47.42277046 43.42909104 44.21630859 43.45166016 C43.11473923 43.4612677 42.01316986 43.47087524 40.8782196 43.48077393 C39.09228142 43.48714874 39.09228142 43.48714874 37.27026367 43.49365234 C35.43350822 43.50220245 35.43350822 43.50220245 33.55964661 43.51092529 C30.96636826 43.52037848 28.37307788 43.52691053 25.77978516 43.53076172 C21.81611112 43.54046293 17.8529565 43.57148256 13.8894043 43.60302734 C11.37052717 43.60955784 8.85164633 43.61480813 6.33276367 43.61865234 C5.14821091 43.63099915 3.96365814 43.64334595 2.74320984 43.65606689 C-4.63570593 43.636135 -9.21874121 42.9396639 -15.02270508 38.10302734 C-20.10524266 32.08423284 -22.11782868 26.92437776 -21.77661133 18.96630859 C-20.80721299 12.12055744 -17.49620359 7.85262123 -12.27661133 3.51708984 C-8.29294611 0.91652669 -4.7241468 0.03897424 0 0 Z " fill="#000000" transform="translate(298.397705078125,276.70947265625)"/>
<path d="M0 0 C2.13847305 0.01384833 4.27254066 -0.0202482 6.41064453 -0.05834961 C14.52333961 -0.1045721 21.53797364 0.56578596 28.27392578 5.57641602 C33.96495743 11.60157863 34.64109227 17.29120344 34.54345703 25.27954102 C34.08416823 30.89750837 32.49141145 34.54186176 28.33251953 38.35766602 C22.86124798 42.62989279 18.73688143 43.74207926 11.82470703 43.81469727 C11.09325974 43.82276901 10.36181244 43.83084076 9.60820007 43.8391571 C8.05905513 43.85297964 6.50987997 43.86370998 4.96069336 43.87158203 C3.38670847 43.88307333 1.81276168 43.90348005 0.23901367 43.93310547 C-16.19540729 44.24234139 -16.19540729 44.24234139 -22.72607422 39.57641602 C-24.78466797 37.50610352 -24.78466797 37.50610352 -26.16357422 35.45141602 C-26.63666016 34.76821289 -27.10974609 34.08500977 -27.59716797 33.38110352 C-29.88373399 29.72576267 -29.92126226 27.15656043 -29.97607422 22.82641602 C-30.00185547 21.61469727 -30.02763672 20.40297852 -30.05419922 19.15454102 C-29.46743784 12.75604785 -26.55727612 8.65609762 -21.72607422 4.57641602 C-14.80499681 -0.01782064 -8.09248071 -0.07306354 0 0 Z " fill="#000000" transform="translate(413.72607421875,404.423583984375)"/>
</svg>
